Coordinates
version=1
nRows=4
nColumns=107
inDegrees=yes

Units are S.I. units (second, meters, Newtons, ...)
If the header above contains a line with 'inDegrees', this indicates whether rotational values are in degrees (yes) or radians (no).

endheader
time	sternoclavicular_r2	sternoclavicular_r3	unrotscap_r3	unrotscap_r2	acromioclavicular_r2	acromioclavicular_r3	acromioclavicular_r1	unrothum_r1	unrothum_r3	unrothum_r2	elv_angle	shoulder_elv	shoulder1_r2	shoulder_rot	elbow_flexion	pro_sup	deviation	flexion	proximal_distal_r1	proximal_distal_r3	cmc_flexion	cmc_abduction	mp_flexion	ip_flexion	mcp2_flexion	mcp2_abduction	pm2_flexion	md2_flexion	mcp3_flexion	mcp3_abduction	pm3_flexion	md3_flexion	mcp4_flexion	mcp4_abduction	pm4_flexion	md4_flexion	mcp5_flexion	mcp5_abduction	pm5_flexion	md5_flexion	bicpt_tx	bicpt_ty	bicpt_tz	bicpt2_tx	bicpt2_ty	bicpt2_tz	ptpt_tx	ptpt_ty	ptpt_tz	FCUpt_tx	FCUpt_ty	FCUpt_tz	EDCpt_tx	EDCpt_ty	EDCpt_tz	APLpt_tx	APLpt_ty	APLpt_tz	FPLpt_tx	FPLpt_ty	FPLpt_tz	FPLpt2_tx	FPLpt2_ty	FPLpt2_tz	PEC1pt2_tx	PEC1pt2_ty	PEC1pt2_tz	PEC1pt3_tx	PEC1pt3_ty	PEC1pt3_tz	PEC2pt2_tx	PEC2pt2_ty	PEC2pt2_tz	PEC2pt3_tx	PEC2pt3_ty	PEC2pt3_tz	PEC3pt2_tx	PEC3pt2_ty	PEC3pt2_tz	PEC3pt3_tx	PEC3pt3_ty	PEC3pt3_tz	DELT2pt2a_tx	DELT2pt2a_ty	DELT2pt2a_tz	DELT2pt2_tx	DELT2pt2_ty	DELT2pt2_tz	LAT1pt2_tx	LAT1pt2_ty	LAT1pt2_tz	LAT1pt3_tx	LAT1pt3_ty	LAT1pt3_tz	LAT2pt2_tx	LAT2pt2_ty	LAT2pt2_tz	LAT2pt3_tx	LAT2pt3_ty	LAT2pt3_tz	LAT3pt2_tx	LAT3pt2_ty	LAT3pt2_tz	LAT3pt3_tx	LAT3pt3_ty	LAT3pt3_tz
      1.06666667	     -0.31578228	      0.13375047	     -0.13375047	      0.31578228	     -0.06393949	      0.51673645	      0.23226948	     -0.23226948	     -0.51673645	      0.06393949	    101.03366916	     74.76426204	     -1.76337018	    -34.28780655	     31.04589662	     79.32863044	      0.31999250	     -0.62591649	      0.35046407	     -0.31295825	     30.25611016	    -23.66396823	     -7.39081594	     -1.98437074	     95.25520821	     13.09689788	     61.57916338	     79.06034448	     94.38113953	      1.13887727	     73.49988379	     55.24574083	     88.70930411	    -13.14472055	     86.40094495	     45.31804848	     89.34550405	    -14.07503931	     92.33339837	      5.44360706	      0.00092690	     -0.03115833	     -0.00487315	      0.01487860	     -0.01863377	     -0.00218730	      0.00168851	     -0.06869014	     -0.00644035	      0.01197849	     -0.18245734	     -0.00008319	     -0.00951941	      0.00321878	     -0.00055506	      0.00031231	      0.00012492	      0.00062462	      0.00039976	      0.00119927	      0.00067459	     -0.00000889	     -0.00024783	     -0.00029740	      0.00245061	      0.00859790	      0.00598115	     -0.00801640	      0.01935565	     -0.01835880	      0.00245061	      0.00859790	      0.00598115	      0.00053996	      0.01794344	     -0.00942861	      0.00389448	      0.00478118	      0.01583547	      0.00000000	      0.00747356	      0.00000000	     -0.00701954	     -0.03243941	     -0.00616053	      0.02065584	     -0.00090593	     -0.00969363	     -0.00087225	      0.01462058	     -0.00598115	      0.00240907	      0.02110015	     -0.01744501	     -0.00585654	      0.01266840	     -0.00535811	     -0.01221151	      0.02674901	     -0.02994727	     -0.02292773	      0.01416369	     -0.00718568	     -0.01520208	      0.03090259	     -0.03742370
      1.10000000	     -0.31857596	      0.13493374	     -0.13493374	      0.31857596	     -0.06450515	      0.52130795	      0.23432434	     -0.23432434	     -0.52130795	      0.06450515	    100.34480063	     75.42569129	     -1.75134716	    -30.94379728	     30.62839929	     76.21195329	      0.33290382	     -0.62464483	      0.36108692	     -0.31232242	     29.86950517	    -23.64373691	     -7.14146750	     -2.74578094	     95.27921155	     13.03479302	     61.85258760	     79.62857137	     94.28853307	      0.96824123	     73.78053049	     55.59886103	     89.03036016	    -13.18147617	     86.63548602	     45.39815930	     89.85824277	    -14.08299450	     92.76565143	      5.44272105	      0.00091309	     -0.03111048	     -0.00486545	      0.01514210	     -0.01852035	     -0.00268507	      0.00191880	     -0.06854123	     -0.00618928	      0.01162837	     -0.18255560	     -0.00014972	     -0.00914541	      0.00305566	     -0.00046889	      0.00031234	      0.00012494	      0.00062468	      0.00039980	      0.00119939	      0.00067466	     -0.00000837	     -0.00025108	     -0.00030130	      0.00247229	      0.00867396	      0.00603406	     -0.00808732	      0.01952689	     -0.01852121	      0.00247229	      0.00867396	      0.00603406	      0.00054474	      0.01810218	     -0.00951203	      0.00391978	      0.00482348	      0.01589838	      0.00000000	      0.00760728	      0.00000000	     -0.00708164	     -0.03272640	     -0.00627157	      0.01929047	     -0.00078943	     -0.00796371	     -0.00087997	      0.01474993	     -0.00603406	      0.00243039	      0.02128682	     -0.01759934	     -0.00590835	      0.01278048	     -0.00540551	     -0.01231954	      0.02698566	     -0.03021221	     -0.02313056	      0.01428899	     -0.00724925	     -0.01533657	      0.03117598	     -0.03775478
      1.13333333	     -0.31866968	      0.13497344	     -0.13497344	      0.31866968	     -0.06452413	      0.52146131	      0.23439327	     -0.23439327	     -0.52146131	      0.06452413	    100.33004094	     75.44787975	     -1.75108955	    -30.84479774	     30.61028315	     76.14458632	      0.33296271	     -0.62502339	      0.36113443	     -0.31251170	     29.74564962	    -23.61886262	     -6.88502235	     -3.01167113	     95.21695052	     13.04299657	     62.12137220	     79.87352135	     94.35507944	      0.97832583	     73.66487839	     55.90588003	     88.88417848	    -13.15699746	     87.01320273	     45.37121938	     89.63808194	    -14.08044114	     93.49714522	      5.42794166	      0.00091249	     -0.03110841	     -0.00486511	      0.01514762	     -0.01851543	     -0.00269572	      0.00192377	     -0.06853801	     -0.00618386	      0.01162083	     -0.18255770	     -0.00015111	     -0.00913733	      0.00305216	     -0.00046706	      0.00031234	      0.00012493	      0.00062467	      0.00039979	      0.00119937	      0.00067465	     -0.00000819	     -0.00025209	     -0.00030250	      0.00247302	      0.00867651	      0.00603584	     -0.00808970	      0.01953263	     -0.01852666	      0.00247302	      0.00867651	      0.00603584	      0.00054490	      0.01810751	     -0.00951482	      0.00392062	      0.00482490	      0.01590048	      0.00000000	      0.00761179	      0.00000000	     -0.00708372	     -0.03273602	     -0.00627531	      0.01924774	     -0.00078603	     -0.00791447	     -0.00088023	      0.01475426	     -0.00603584	      0.00243110	      0.02129309	     -0.01760452	     -0.00591009	      0.01278423	     -0.00540710	     -0.01232316	      0.02699360	     -0.03022109	     -0.02313737	      0.01429319	     -0.00725139	     -0.01534108	      0.03118515	     -0.03776589
      1.16666667	     -0.31866647	      0.13497208	     -0.13497208	      0.31866647	     -0.06452348	      0.52145606	      0.23439091	     -0.23439091	     -0.52145606	      0.06452348	    100.34066888	     75.44712013	     -1.75127505	    -30.84144062	     30.61301009	     76.14535481	      0.33296402	     -0.62503024	      0.36113524	     -0.31251512	     29.74619829	    -23.61867465	     -6.88487926	     -3.01148000	     95.21547946	     13.04313241	     62.12085050	     79.87304006	     94.35288532	      0.97847688	     73.66466268	     55.90581019	     88.88379005	    -13.15690484	     87.01311472	     45.37127807	     89.63636554	    -14.08057567	     93.49622807	      5.42783524	      0.00091258	     -0.03110872	     -0.00486516	      0.01514748	     -0.01851617	     -0.00269555	      0.00192372	     -0.06853805	     -0.00618392	      0.01162092	     -0.18255767	     -0.00015106	     -0.00913742	      0.00305221	     -0.00046711	      0.00031233	      0.00012493	      0.00062466	      0.00039978	      0.00119935	      0.00067464	     -0.00000819	     -0.00025208	     -0.00030250	      0.00247299	      0.00867643	      0.00603577	     -0.00808961	      0.01953244	     -0.01852648	      0.00247299	      0.00867643	      0.00603577	      0.00054490	      0.01810732	     -0.00951473	      0.00392059	      0.00482485	      0.01590040	      0.00000000	      0.00761163	      0.00000000	     -0.00708365	     -0.03273569	     -0.00627518	      0.01924629	     -0.00078592	     -0.00791280	     -0.00088022	      0.01475412	     -0.00603577	      0.00243108	      0.02129287	     -0.01760434	     -0.00591003	      0.01278411	     -0.00540705	     -0.01232304	      0.02699333	     -0.03022079	     -0.02313714	      0.01429305	     -0.00725131	     -0.01534093	      0.03118484	     -0.03776551
